<svg xmlns="http://www.w3.org/2000/svg" xml:space="preserve" style="enable-background:new 0 0 24 24" viewBox="0 0 24 24" id="spider">
  <path d="M15.499 18a3.5 3.5 0 1 1-7 0c0-1.933 1.567-5.5 3.5-5.5s3.5 3.567 3.5 5.5z" style="fill:#9b4888"></path>
  <path d="M9.999 18c0-1.933.895-5.5 2-5.5-1.933 0-3.5 3.567-3.5 5.5s1.567 3.5 3.5 3.5c-1.105 0-2-1.567-2-3.5z" style="opacity:.2;fill:#fff;enable-background:new"></path>
  <path d="M11.999 12.5c1.105 0 2 3.567 2 5.5s-.895 3.5-2 3.5c1.933 0 3.5-1.567 3.5-3.5s-1.567-5.5-3.5-5.5z" style="opacity:.1;enable-background:new"></path>
  <path d="M11.999 12.5c.406 0 .794.164 1.157.431l.194-1.938a1.358 1.358 0 1 0-2.702 0l.194 1.938c.363-.267.752-.431 1.157-.431z" style="fill:#9b4888"></path>
  <path d="m10.648 10.993.194 1.938c.268-.197.549-.336.842-.397l-.041-1.541c-.021-.799.144-1.493.356-1.493-.803 0-1.431.693-1.351 1.493z" style="opacity:.2;fill:#fff;enable-background:new"></path>
  <path d="M11.999 9.5c.212 0 .377.693.356 1.493l-.041 1.541c.292.06.574.2.842.397l.194-1.938c.08-.8-.548-1.493-1.351-1.493z" style="opacity:.1;enable-background:new"></path>
  <path d="M18.899 12.2a.496.496 0 0 0-.353-.198l-3.348-.319 3.401-.694a.496.496 0 0 0 .3-.19l3-4a.5.5 0 1 0-.8-.6l-2.886 3.848-4.366.891v-.063l4.966-3.986A.498.498 0 0 0 19 6.5v-6a.5.5 0 0 0-1 0v5.76l-4.457 3.578c-.051-.078-.102-.157-.165-.227-.031-.035-.07-.059-.104-.091.246-.544.364-1.294-.192-1.868a.5.5 0 0 0-.719.695c.183.189.111.49.014.717a2.034 2.034 0 0 0-.754 0c-.096-.226-.169-.527.014-.717a.5.5 0 1 0-.719-.695c-.556.574-.438 1.323-.192 1.868-.034.032-.073.056-.104.091-.066.073-.119.154-.172.235L5.999 6.261V.5a.5.5 0 0 0-1 0v6c0 .151.068.294.187.389l4.966 4v.049l-4.366-.891L2.899 6.2a.5.5 0 1 0-.799.6l3 4c.073.098.18.166.3.19l3.401.694-3.348.319a.5.5 0 0 0-.353.198l-3 4a.5.5 0 1 0 .799.6l2.868-3.823 4.535-.432.016.157a4.494 4.494 0 0 0-.4.394l-4.687 2.982A.498.498 0 0 0 5 16.5v7a.5.5 0 0 0 1 0v-6.726l2.7-1.718c-.446 1.028-.7 2.121-.7 2.943 0 2.206 1.794 4 4 4s4-1.794 4-4c0-.822-.254-1.915-.699-2.943L18 16.774V23.5a.5.5 0 0 0 1 0v-7a.5.5 0 0 0-.231-.422l-4.686-2.982a4.797 4.797 0 0 0-.4-.395l.016-.157 4.535.432 2.868 3.823a.498.498 0 0 0 .699.1.5.5 0 0 0 .1-.7L18.899 12.2zm-6.264-1.918a.845.845 0 0 1 .217.661l-.119 1.194c-.236-.084-.48-.137-.734-.137s-.497.053-.734.137l-.119-1.194a.852.852 0 0 1 .217-.661.877.877 0 0 1 1.272 0zM11.999 21c-1.654 0-3-1.346-3-3 0-1.262.7-3.149 1.629-4.207.011-.013.026-.023.035-.037.133-.148.271-.275.412-.384.035-.019.062-.047.091-.073.271-.189.551-.299.833-.299s.562.11.832.299c.029.026.056.054.091.073.141.109.279.237.413.385.009.014.024.023.034.036.931 1.058 1.63 2.946 1.63 4.207 0 1.655-1.346 3-3 3z" style="fill:#303c42"></path>
  <path d="M12.999 16h-.5v-.5a.5.5 0 0 0-1 0v.5h-.5a.5.5 0 0 0 0 1h.5v1.5a.5.5 0 0 0 1 0V17h.5a.5.5 0 0 0 0-1z" style="fill:#303c42"></path>
  <linearGradient id="a" x1="1.637" x2="22.197" y1="7.168" y2="16.755" gradientUnits="userSpaceOnUse">
    <stop offset="0" style="stop-color:#fff;stop-opacity:.2"></stop>
    <stop offset="1" style="stop-color:#fff;stop-opacity:0"></stop>
  </linearGradient>
  <path d="M18.899 12.2a.496.496 0 0 0-.353-.198l-3.348-.319 3.401-.694a.496.496 0 0 0 .3-.19l3-4a.5.5 0 1 0-.8-.6l-2.886 3.848-4.366.891v-.063l4.966-3.986A.498.498 0 0 0 19 6.5v-6a.5.5 0 0 0-1 0v5.76l-4.457 3.578c-.051-.078-.102-.157-.165-.227-.031-.035-.07-.059-.104-.091.246-.544.364-1.294-.192-1.868a.5.5 0 0 0-.719.695c.183.189.111.49.014.717a2.034 2.034 0 0 0-.754 0c-.096-.226-.169-.527.014-.717a.5.5 0 1 0-.719-.695c-.556.574-.438 1.323-.192 1.868-.034.032-.073.056-.104.091-.066.073-.119.154-.172.235L5.999 6.261V.5a.5.5 0 0 0-1 0v6c0 .151.068.294.187.389l4.966 4v.049l-4.366-.891L2.899 6.2a.5.5 0 1 0-.799.6l3 4c.073.098.18.166.3.19l3.401.694-3.348.319a.5.5 0 0 0-.353.198l-3 4a.5.5 0 1 0 .799.6l2.868-3.823 4.535-.432.016.157a4.494 4.494 0 0 0-.4.394l-4.687 2.982A.498.498 0 0 0 5 16.5v7a.5.5 0 0 0 1 0v-6.726l2.7-1.718c-.446 1.028-.7 2.121-.7 2.943 0 2.206 1.794 4 4 4s4-1.794 4-4c0-.822-.254-1.915-.699-2.943L18 16.774V23.5a.5.5 0 0 0 1 0v-7a.5.5 0 0 0-.231-.422l-4.686-2.982a4.797 4.797 0 0 0-.4-.395l.016-.157 4.535.432 2.868 3.823a.498.498 0 0 0 .699.1.5.5 0 0 0 .1-.7L18.899 12.2z" style="fill:url(#a)"></path>
</svg>
